<?xml version="1.0" encoding="utf-8"?>
<!-- Generator: Adobe Illustrator 22.0.1, SVG Export Plug-In . SVG Version: 6.00 Build 0)  -->
<svg version="1.1" id="Capa_1" xmlns="http://www.w3.org/2000/svg" xmlns:xlink="http://www.w3.org/1999/xlink" x="0px" y="0px"
	 viewBox="0 0 107 28.7" style="enable-background:new 0 0 107 28.7;" xml:space="preserve">
<style type="text/css">
	.st0{clip-path:url(#SVGID_2_);fill:#4A4A4A;}
	.st1{clip-path:url(#SVGID_4_);fill:#4A4A4A;}
	.st2{clip-path:url(#SVGID_6_);fill:#4A4A4A;}
	.st3{clip-path:url(#SVGID_8_);fill:#4A4A4A;}
	.st4{clip-path:url(#SVGID_10_);fill:#4A4A4A;}
	.st5{clip-path:url(#SVGID_12_);fill:#4A4A4A;}
	.st6{clip-path:url(#SVGID_14_);fill:#4A4A4A;}
	.st7{clip-path:url(#SVGID_16_);fill:#4A4A4A;}
	.st8{clip-path:url(#SVGID_18_);fill:#4A4A4A;}
	.st9{clip-path:url(#SVGID_20_);fill:#4A4A4A;}
	.st10{clip-path:url(#SVGID_22_);fill:#4A4A4A;}
	.st11{clip-path:url(#SVGID_24_);fill:#4A4A4A;}
	.st12{clip-path:url(#SVGID_26_);fill:#4A4A4A;}
	.st13{clip-path:url(#SVGID_28_);fill:#4A4A4A;}
</style>
<g>
	<g>
		<defs>
			<path id="SVGID_1_" d="M62.4,14.6c0-2.5-1.1-4.6-4.6-4.6c-1.8,0-3.3,0.5-4.1,1l0.6,2c0.7-0.5,1.9-0.8,3-0.8c1.8,0,2.1,1,2.1,1.7
				v0.2c-3.9,0-6.4,1.4-6.4,4.1c0,1.7,1.3,3.3,3.5,3.3c1.4,0,2.5-0.5,3.2-1.4h0.1c0,0,0.5,1.9,2.9,1.2c-0.1-0.8-0.2-1.6-0.2-2.6
				V14.6z M59.5,17.2c0,0.2,0,0.4-0.1,0.6c-0.2,0.8-1,1.4-2,1.4c-0.8,0-1.5-0.5-1.5-1.4c0-1.5,1.6-1.9,3.5-1.9V17.2z"/>
		</defs>
		<use xlink:href="#SVGID_1_"  style="overflow:visible;fill-rule:evenodd;clip-rule:evenodd;fill:#4A4A4A;"/>
		<clipPath id="SVGID_2_">
			<use xlink:href="#SVGID_1_"  style="overflow:visible;"/>
		</clipPath>
		<rect x="52.1" y="9.1" class="st0" width="11.4" height="13.2"/>
	</g>
	<g>
		<defs>
			<path id="SVGID_3_" d="M1,6.6c0,0,2.6,10.6,3,12.3c0.5,2,1.3,2.7,3.8,2.2l1.6-6.5c0.4-1.6,0.7-2.8,0.9-4.4h0
				c0.2,1.7,0.4,2.8,0.8,4.4c0,0,0.7,3,1,4.5c0.3,1.6,1.3,2.5,3.7,2l3.8-14.5h-3.1l-1.3,6.3c-0.4,1.8-0.7,3.3-0.9,4.9h0
				c-0.2-1.7-0.5-3-0.9-4.8l-1.4-6.4H8.9l-1.5,6.2c-0.4,1.9-0.8,3.4-1,5h0c-0.3-1.5-0.6-3.4-0.9-5.3c0,0-0.9-4.5-1.2-6H1"/>
		</defs>
		<use xlink:href="#SVGID_3_"  style="overflow:visible;fill-rule:evenodd;clip-rule:evenodd;fill:#4A4A4A;"/>
		<clipPath id="SVGID_4_">
			<use xlink:href="#SVGID_3_"  style="overflow:visible;"/>
		</clipPath>
		<rect x="0.1" y="5.7" class="st1" width="20.5" height="16.4"/>
	</g>
	<g>
		<defs>
			<path id="SVGID_5_" d="M28.5,14.6c0-2.5-1.1-4.6-4.6-4.6c-1.8,0-3.3,0.5-4.1,1l0.6,2c0.7-0.5,1.9-0.8,3-0.8c1.8,0,2.1,1,2.1,1.7
				v0.2c-3.9,0-6.4,1.4-6.4,4.1c0,1.7,1.3,3.3,3.5,3.3c1.4,0,2.5-0.5,3.2-1.4h0.1c0,0,0.5,1.9,2.9,1.2c-0.1-0.8-0.2-1.6-0.2-2.6
				V14.6z M25.6,17.2c0,0.2,0,0.4-0.1,0.6c-0.2,0.8-1,1.4-2,1.4c-0.8,0-1.5-0.5-1.5-1.4c0-1.5,1.6-1.9,3.5-1.9V17.2z"/>
		</defs>
		<use xlink:href="#SVGID_5_"  style="overflow:visible;fill-rule:evenodd;clip-rule:evenodd;fill:#4A4A4A;"/>
		<clipPath id="SVGID_6_">
			<use xlink:href="#SVGID_5_"  style="overflow:visible;"/>
		</clipPath>
		<rect x="18.2" y="9.1" class="st2" width="11.4" height="13.2"/>
	</g>
	<g>
		<defs>
			<polyline id="SVGID_7_" points="33.4,18 33.4,6.6 30.5,6.6 30.5,21.1 33.4,21.1 33.4,18 			"/>
		</defs>
		<use xlink:href="#SVGID_7_"  style="overflow:visible;fill-rule:evenodd;clip-rule:evenodd;fill:#4A4A4A;"/>
		<clipPath id="SVGID_8_">
			<use xlink:href="#SVGID_7_"  style="overflow:visible;"/>
		</clipPath>
		<rect x="29.6" y="5.7" class="st3" width="4.7" height="16.3"/>
	</g>
	<g>
		<defs>
			<path id="SVGID_9_" d="M72,6.6c0,1.4,0,10.7,0,10.7c0,1.5,0.3,2.5,0.9,3.1c0.5,0.6,1.4,0.9,2.4,0.9c0.9,0,1.7-0.2,2.1-0.3l0-2.3
				c-0.3,0.1-0.6,0.1-1.1,0.1c-1,0-1.3-0.6-1.3-2v-4.1h2.6v-2.8h-2.6V6.6H72"/>
		</defs>
		<use xlink:href="#SVGID_9_"  style="overflow:visible;fill-rule:evenodd;clip-rule:evenodd;fill:#4A4A4A;"/>
		<clipPath id="SVGID_10_">
			<use xlink:href="#SVGID_9_"  style="overflow:visible;"/>
		</clipPath>
		<rect x="71.1" y="5.7" class="st4" width="7.3" height="16.5"/>
	</g>
	<g>
		<defs>
			<path id="SVGID_11_" d="M64.4,10.2v10.9h3v-5.6c0-0.3,0-0.6,0.1-0.8c0.2-1.2,1.1-1.9,2.4-1.9c0.4,0,0.6,0,0.9,0.1v-2.9
				c-0.2,0-0.4-0.1-0.7-0.1c-1.1,0-2.4,0.7-3,2.3h-0.1v-2.1H64.4"/>
		</defs>
		<use xlink:href="#SVGID_11_"  style="overflow:visible;fill-rule:evenodd;clip-rule:evenodd;fill:#4A4A4A;"/>
		<clipPath id="SVGID_12_">
			<use xlink:href="#SVGID_11_"  style="overflow:visible;"/>
		</clipPath>
		<rect x="63.5" y="9.1" class="st5" width="8.2" height="12.9"/>
	</g>
	<g>
		<defs>
			<path id="SVGID_13_" d="M35.5,10.2v10.9h3v-6.4c0-0.3,0-0.6,0.1-0.9c0.2-0.6,0.8-1.4,1.8-1.4c1.2,0,1.8,1,1.8,2.5v6.2h3v-6.5
				c0-0.3,0-0.6,0.1-0.9c0.2-0.7,0.9-1.3,1.8-1.3c1.2,0,1.8,1,1.8,2.7c0,0,0,4.6,0,6h3v-6.4c0-3.4-1.7-4.7-3.7-4.7
				c-0.9,0-1.5,0.2-2.2,0.6c-0.5,0.3-1,0.8-1.4,1.4h0c-0.5-1.2-1.6-1.9-3-1.9c-1.8,0-2.7,0.9-3.2,1.7h0v-1.5H35.5"/>
		</defs>
		<use xlink:href="#SVGID_13_"  style="overflow:visible;fill-rule:evenodd;clip-rule:evenodd;fill:#4A4A4A;"/>
		<clipPath id="SVGID_14_">
			<use xlink:href="#SVGID_13_"  style="overflow:visible;"/>
		</clipPath>
		<rect x="34.6" y="9.1" class="st6" width="18.1" height="12.9"/>
	</g>
	<g>
		<defs>
			<path id="SVGID_15_" d="M93.4,9.8c0.6,0,1.1-0.3,1.1-0.7l0.6-6.5c0-0.6-0.8-1.2-1.7-1.2c-1,0-1.7,0.5-1.7,1.2l0.6,6.5
				C92.3,9.5,92.8,9.8,93.4,9.8L93.4,9.8"/>
		</defs>
		<use xlink:href="#SVGID_15_"  style="overflow:visible;fill-rule:evenodd;clip-rule:evenodd;fill:#4A4A4A;"/>
		<clipPath id="SVGID_16_">
			<use xlink:href="#SVGID_15_"  style="overflow:visible;"/>
		</clipPath>
		<rect x="90.8" y="0.5" class="st7" width="5.2" height="10.2"/>
	</g>
	<g>
		<defs>
			<path id="SVGID_17_" d="M89.9,11.8c0.3-0.5,0.3-1.1,0-1.3l-5.4-3.8c-0.6-0.3-1.4,0.1-1.9,0.9c-0.5,0.8-0.4,1.7,0.2,2.1l6,2.8
				C89.1,12.6,89.6,12.3,89.9,11.8L89.9,11.8"/>
		</defs>
		<use xlink:href="#SVGID_17_"  style="overflow:visible;fill-rule:evenodd;clip-rule:evenodd;fill:#4A4A4A;"/>
		<clipPath id="SVGID_18_">
			<use xlink:href="#SVGID_17_"  style="overflow:visible;"/>
		</clipPath>
		<rect x="81.4" y="5.7" class="st8" width="9.6" height="7.7"/>
	</g>
	<g>
		<defs>
			<path id="SVGID_19_" d="M96.9,11.8c0.3,0.5,0.8,0.8,1.2,0.6l6-2.8c0.6-0.3,0.6-1.2,0.2-2.1c-0.5-0.8-1.3-1.2-1.9-0.9L97,10.5
				C96.7,10.8,96.6,11.3,96.9,11.8L96.9,11.8"/>
		</defs>
		<use xlink:href="#SVGID_19_"  style="overflow:visible;fill-rule:evenodd;clip-rule:evenodd;fill:#4A4A4A;"/>
		<clipPath id="SVGID_20_">
			<use xlink:href="#SVGID_19_"  style="overflow:visible;"/>
		</clipPath>
		<rect x="95.8" y="5.7" class="st9" width="9.6" height="7.7"/>
	</g>
	<g>
		<defs>
			<path id="SVGID_21_" d="M93.4,18c0.6,0,1.1,0.3,1.1,0.7l0.6,6.5c0,0.6-0.8,1.2-1.7,1.2c-1,0-1.7-0.5-1.7-1.2l0.6-6.5
				C92.3,18.3,92.8,18,93.4,18L93.4,18"/>
		</defs>
		<use xlink:href="#SVGID_21_"  style="overflow:visible;fill-rule:evenodd;clip-rule:evenodd;fill:#4A4A4A;"/>
		<clipPath id="SVGID_22_">
			<use xlink:href="#SVGID_21_"  style="overflow:visible;"/>
		</clipPath>
		<rect x="90.8" y="17.1" class="st10" width="5.2" height="10.2"/>
	</g>
	<g>
		<defs>
			<path id="SVGID_23_" d="M96.9,15.9c0.3-0.5,0.8-0.8,1.2-0.6l6,2.8c0.6,0.3,0.6,1.2,0.2,2.1c-0.5,0.8-1.3,1.2-1.9,0.9L97,17.2
				C96.7,17,96.6,16.4,96.9,15.9L96.9,15.9"/>
		</defs>
		<use xlink:href="#SVGID_23_"  style="overflow:visible;fill-rule:evenodd;clip-rule:evenodd;fill:#4A4A4A;"/>
		<clipPath id="SVGID_24_">
			<use xlink:href="#SVGID_23_"  style="overflow:visible;"/>
		</clipPath>
		<rect x="95.8" y="14.4" class="st11" width="9.6" height="7.7"/>
	</g>
	<g>
		<defs>
			<path id="SVGID_25_" d="M89.9,15.9c0.3,0.5,0.3,1.1,0,1.3L84.4,21c-0.6,0.3-1.4-0.1-1.9-0.9c-0.5-0.8-0.4-1.7,0.2-2.1l6-2.8
				C89.1,15.1,89.6,15.4,89.9,15.9L89.9,15.9"/>
		</defs>
		<use xlink:href="#SVGID_25_"  style="overflow:visible;fill-rule:evenodd;clip-rule:evenodd;fill:#4A4A4A;"/>
		<clipPath id="SVGID_26_">
			<use xlink:href="#SVGID_25_"  style="overflow:visible;"/>
		</clipPath>
		<rect x="81.4" y="14.4" class="st12" width="9.6" height="7.7"/>
	</g>
	<g>
		<defs>
			<path id="SVGID_27_" d="M106.1,19.7c0.5,0,0.9,0.4,0.9,0.9c0,0.5-0.4,0.9-0.9,0.9c-0.5,0-1-0.4-1-0.9
				C105.2,20.1,105.6,19.7,106.1,19.7L106.1,19.7z M106.1,19.8c-0.4,0-0.7,0.3-0.7,0.8c0,0.4,0.3,0.8,0.8,0.8c0.4,0,0.7-0.3,0.7-0.8
				C106.9,20.2,106.6,19.8,106.1,19.8L106.1,19.8z M106,21.1h-0.2v-1c0.1,0,0.2,0,0.3,0c0.2,0,0.2,0,0.3,0.1c0.1,0,0.1,0.1,0.1,0.2
				c0,0.1-0.1,0.2-0.2,0.2v0c0.1,0,0.1,0.1,0.2,0.2c0,0.2,0,0.2,0.1,0.2h-0.2c0,0-0.1-0.1-0.1-0.3c0-0.1-0.1-0.2-0.2-0.2H106V21.1z
				 M106,20.6h0.1c0.1,0,0.3,0,0.3-0.2c0-0.1-0.1-0.2-0.2-0.2c-0.1,0-0.1,0-0.1,0V20.6z"/>
		</defs>
		<use xlink:href="#SVGID_27_"  style="overflow:visible;fill-rule:evenodd;clip-rule:evenodd;fill:#4A4A4A;"/>
		<clipPath id="SVGID_28_">
			<use xlink:href="#SVGID_27_"  style="overflow:visible;"/>
		</clipPath>
		<rect x="104.3" y="18.8" class="st13" width="3.7" height="3.7"/>
	</g>
</g>
</svg>
